<?xml version="1.0" encoding="UTF-8" standalone="no"?>
<!-- Created with Inkscape (http://www.inkscape.org/) -->

<svg
   xmlns:dc="http://purl.org/dc/elements/1.1/"
   xmlns:cc="http://creativecommons.org/ns#"
   xmlns:rdf="http://www.w3.org/1999/02/22-rdf-syntax-ns#"
   xmlns:svg="http://www.w3.org/2000/svg"
   xmlns="http://www.w3.org/2000/svg"
   xmlns:sodipodi="http://sodipodi.sourceforge.net/DTD/sodipodi-0.dtd"
   xmlns:inkscape="http://www.inkscape.org/namespaces/inkscape"
   width="130"
   height="130"
   viewBox="0 0 130 130"
   id="svg5869"
   version="1.1"
   inkscape:version="0.92.1 r"
   sodipodi:docname="logo3.svg"
   inkscape:export-filename="/home/daniel/PSE/Documents/logo3.png"
   inkscape:export-xdpi="360"
   inkscape:export-ydpi="360">
  <defs
     id="defs5871" />
  <sodipodi:namedview
     id="base"
     pagecolor="#ffffff"
     bordercolor="#666666"
     borderopacity="1.0"
     inkscape:pageopacity="0.0"
     inkscape:pageshadow="2"
     inkscape:zoom="5.6568542"
     inkscape:cx="50.528219"
     inkscape:cy="66.961383"
     inkscape:document-units="px"
     inkscape:current-layer="layer5"
     showgrid="true"
     units="px"
     inkscape:object-nodes="true"
     inkscape:snap-bbox="true"
     inkscape:window-width="1918"
     inkscape:window-height="1036"
     inkscape:window-x="0"
     inkscape:window-y="21"
     inkscape:window-maximized="1"
     inkscape:snap-text-baseline="true">
    <inkscape:grid
       type="xygrid"
       id="grid6417"
       visible="true" />
  </sodipodi:namedview>
  <metadata
     id="metadata5874">
    <rdf:RDF>
      <cc:Work
         rdf:about="">
        <dc:format>image/svg+xml</dc:format>
        <dc:type
           rdf:resource="http://purl.org/dc/dcmitype/StillImage" />
        <dc:title />
      </cc:Work>
    </rdf:RDF>
  </metadata>
  <g
     inkscape:label="Layer 1"
     inkscape:groupmode="layer"
     id="layer1"
     transform="translate(0,-922.36214)"
     style="display:inline">
    <a
       id="a6543">
      <path
         sodipodi:nodetypes="ccccccccccccccccccccccccc"
         inkscape:connector-curvature="0"
         id="path6425"
         d="m 10,1032.3621 15,-5 -5,15 40,0 5,-10 5,10 40,0 -5,-15 15,5 0,-39.99996 -10,-5 10,-5 0,-40 -15,5 5,-15 -40,0 -5,10 -5,-10 -40,0 5,15 -15,-5 0,40 10,5 -10,5 z"
         style="fill:#00034b;fill-opacity:1;fill-rule:evenodd;stroke:none;stroke-width:0.1;stroke-linecap:butt;stroke-linejoin:miter;stroke-miterlimit:4;stroke-dasharray:none;stroke-opacity:1" />
    </a>
  </g>
  <g
     inkscape:groupmode="layer"
     id="layer2"
     inkscape:label="Layer 2"
     style="display:inline">
    <g
       id="g6537"
       style="fill:#00034b;fill-opacity:1;stroke:none">
      <path
         sodipodi:nodetypes="cccc"
         inkscape:connector-curvature="0"
         id="path6434"
         d="M 7,17 17,7 2,2 7,17"
         style="fill:#00034b;fill-opacity:1;fill-rule:evenodd;stroke:none;stroke-width:0.1;stroke-linecap:butt;stroke-linejoin:miter;stroke-miterlimit:4;stroke-dasharray:none;stroke-opacity:1" />
      <path
         sodipodi:nodetypes="cccc"
         inkscape:connector-curvature="0"
         id="path6434-7"
         d="m 113,7 10,10 5,-15 -15,5"
         style="fill:#00034b;fill-opacity:1;fill-rule:evenodd;stroke:none;stroke-width:0.1;stroke-linecap:butt;stroke-linejoin:miter;stroke-miterlimit:4;stroke-dasharray:none;stroke-opacity:1" />
      <path
         sodipodi:nodetypes="cccc"
         inkscape:connector-curvature="0"
         id="path6434-9"
         d="m 123,113 -10,10 15,5 -5,-15"
         style="fill:#00034b;fill-opacity:1;fill-rule:evenodd;stroke:none;stroke-width:0.1;stroke-linecap:butt;stroke-linejoin:miter;stroke-miterlimit:4;stroke-dasharray:none;stroke-opacity:1" />
      <path
         sodipodi:nodetypes="cccc"
         inkscape:connector-curvature="0"
         id="path6434-5"
         d="M 17,123 7,113 2,128 17,123"
         style="fill:#00034b;fill-opacity:1;fill-rule:evenodd;stroke:none;stroke-width:0.1;stroke-linecap:butt;stroke-linejoin:miter;stroke-miterlimit:4;stroke-dasharray:none;stroke-opacity:1" />
    </g>
  </g>
  <g
     inkscape:groupmode="layer"
     id="layer3"
     inkscape:label="Layer 3"
     style="display:inline">
    <g
       id="g6531"
       style="fill:#5d59ff;fill-opacity:1;stroke:none">
      <path
         sodipodi:nodetypes="cccc"
         inkscape:connector-curvature="0"
         id="path6500"
         d="m 10,18 13,5 -5,-13 -8,8"
         style="fill:#5d59ff;fill-opacity:1;fill-rule:evenodd;stroke:none;stroke-width:0.1;stroke-linecap:butt;stroke-linejoin:miter;stroke-miterlimit:4;stroke-dasharray:none;stroke-opacity:1" />
      <path
         sodipodi:nodetypes="cccc"
         inkscape:connector-curvature="0"
         id="path6500-6"
         d="m 112,9.999999 -5,13 13,-5 -8,-8"
         style="fill:#5d59ff;fill-opacity:1;fill-rule:evenodd;stroke:none;stroke-width:0.1;stroke-linecap:butt;stroke-linejoin:miter;stroke-miterlimit:4;stroke-dasharray:none;stroke-opacity:1" />
      <path
         sodipodi:nodetypes="cccc"
         inkscape:connector-curvature="0"
         id="path6500-8"
         d="m 120,112 -13,-5 5,13 8,-8"
         style="fill:#5d59ff;fill-opacity:1;fill-rule:evenodd;stroke:none;stroke-width:0.1;stroke-linecap:butt;stroke-linejoin:miter;stroke-miterlimit:4;stroke-dasharray:none;stroke-opacity:1" />
      <path
         sodipodi:nodetypes="cccc"
         inkscape:connector-curvature="0"
         id="path6500-9"
         d="m 18,120 5,-13 -13,5 8,8"
         style="fill:#5d59ff;fill-opacity:1;fill-rule:evenodd;stroke:none;stroke-width:0.1;stroke-linecap:butt;stroke-linejoin:miter;stroke-miterlimit:4;stroke-dasharray:none;stroke-opacity:1" />
    </g>
  </g>
  <g
     inkscape:groupmode="layer"
     id="layer4"
     inkscape:label="Layer 4"
     style="display:inline">
    <g
       id="g6597"
       style="fill:#5d59ff;fill-opacity:1">
      <path
         sodipodi:nodetypes="cccc"
         inkscape:connector-curvature="0"
         id="path6547"
         d="m 61,10 8,0 -4,-9 z"
         style="fill:#5d59ff;fill-opacity:1;fill-rule:evenodd;stroke:#000000;stroke-width:0;stroke-linecap:butt;stroke-linejoin:miter;stroke-miterlimit:4;stroke-dasharray:none;stroke-opacity:1" />
      <path
         sodipodi:nodetypes="cccc"
         inkscape:connector-curvature="0"
         id="path6547-1"
         d="m 120,61 0,8 9,-4 z"
         style="fill:#5d59ff;fill-opacity:1;fill-rule:evenodd;stroke:#000000;stroke-width:0;stroke-linecap:butt;stroke-linejoin:miter;stroke-miterlimit:4;stroke-dasharray:none;stroke-opacity:1" />
      <path
         sodipodi:nodetypes="cccc"
         inkscape:connector-curvature="0"
         id="path6547-59"
         d="m 10,69 0,-8 -9,4 z"
         style="fill:#5d59ff;fill-opacity:1;fill-rule:evenodd;stroke:#000000;stroke-width:0;stroke-linecap:butt;stroke-linejoin:miter;stroke-miterlimit:4;stroke-dasharray:none;stroke-opacity:1" />
      <path
         sodipodi:nodetypes="cccc"
         inkscape:connector-curvature="0"
         id="path6547-9"
         d="m 61,120 8,0 -4,9 z"
         style="fill:#5d59ff;fill-opacity:1;fill-rule:evenodd;stroke:#000000;stroke-width:0;stroke-linecap:butt;stroke-linejoin:miter;stroke-miterlimit:4;stroke-dasharray:none;stroke-opacity:1" />
    </g>
    <text
       xml:space="preserve"
       style="font-style:normal;font-weight:normal;font-size:40px;line-height:125%;font-family:sans-serif;letter-spacing:-1.63px;word-spacing:0px;fill:#787676;fill-opacity:1;stroke:none;stroke-width:1px;stroke-linecap:butt;stroke-linejoin:miter;stroke-opacity:1"
       x="23.118338"
       y="81.416977"
       id="text6603"><tspan
         sodipodi:role="line"
         id="tspan6605"
         x="0"
         y="0"
         style="font-style:normal;font-variant:normal;font-weight:normal;font-stretch:normal;font-size:80px;font-family:Ubuntu;-inkscape-font-specification:Ubuntu;fill:#787676;fill-opacity:1"><tspan
           style="font-style:normal;font-variant:normal;font-weight:300;font-stretch:normal;font-family:Ubuntu;-inkscape-font-specification:'Ubuntu Light';fill:#3a36ff;fill-opacity:1"
           id="tspan7017" /></tspan></text>
  </g>
  <g
     inkscape:groupmode="layer"
     id="layer5"
     inkscape:label="Layer 5">
    <g
       aria-label="EPL
Viz"
       style="font-style:normal;font-weight:normal;font-size:40px;line-height:125%;font-family:sans-serif;letter-spacing:0px;word-spacing:0px;fill:#cac9ff;fill-opacity:1;stroke:none;stroke-width:1px;stroke-linecap:butt;stroke-linejoin:miter;stroke-opacity:1"
       id="text3367">
      <path
         d="M 26.5,65 V 30.35 h 20 V 33.3 H 29.9 v 12.05 h 14.8 v 2.9 H 29.9 v 13.8 H 47.8 V 65 Z"
         style="font-style:normal;font-variant:normal;font-weight:300;font-stretch:normal;font-size:50px;font-family:Ubuntu;-inkscape-font-specification:'Ubuntu Light';fill:#cac9ff;fill-opacity:1"
         id="path4824" />
      <path
         d="m 62.984375,30.05 q 7.35,0 10.95,2.8 3.6,2.8 3.6,7.95 0,2.95 -1.05,5.05 -1.05,2.05 -3,3.35 -1.95,1.25 -4.8,1.85 -2.8,0.55 -6.35,0.55 h -4.7 V 65 h -3.4 V 31 q 1.8,-0.5 4.2,-0.7 2.45,-0.25 4.55,-0.25 z m 0.15,2.95 q -1.9,0 -3.25,0.15 -1.3,0.1 -2.25,0.2 v 15.3 h 4.3 q 2.75,0 4.95,-0.3 2.25,-0.35 3.8,-1.2 1.6,-0.9 2.45,-2.45 0.85,-1.55 0.85,-3.95 0,-2.3 -0.95,-3.8 -0.9,-1.5 -2.45,-2.35 -1.5,-0.9 -3.45,-1.25 -1.95,-0.35 -4,-0.35 z"
         style="font-style:normal;font-variant:normal;font-weight:300;font-stretch:normal;font-size:50px;font-family:Ubuntu;-inkscape-font-specification:'Ubuntu Light';fill:#cac9ff;fill-opacity:1"
         id="path4826" />
      <path
         d="M 103.52422,62.05 V 65 H 83.824219 V 30.35 h 3.4 v 31.7 z"
         style="font-style:normal;font-variant:normal;font-weight:300;font-stretch:normal;font-size:50px;font-family:Ubuntu;-inkscape-font-specification:'Ubuntu Light';fill:#cac9ff;fill-opacity:1"
         id="path4828" />
      <path
         d="m 62.84,74.189063 q -1.52,4.4 -2.92,8.16 -1.36,3.72 -2.68,7.08 -1.32,3.36 -2.64,6.44 -1.28,3.04 -2.64,6.039997 h -3.64 q -1.36,-2.999997 -2.68,-6.039997 -1.28,-3.08 -2.64,-6.44 -1.32,-3.36 -2.72,-7.08 -1.4,-3.76 -2.88,-8.16 h 4.28 q 2.16,6.32 4.24,12.16 2.08,5.84 4.28,10.96 2.2,-5.08 4.28,-10.92 2.08,-5.88 4.2,-12.2 z"
         style="font-style:normal;font-variant:normal;font-weight:normal;font-stretch:normal;font-family:Ubuntu;-inkscape-font-specification:Ubuntu;baseline-shift:baseline;fill:#5d59ff;fill-opacity:1"
         id="path4830" />
      <path
         d="M 70.17,101.90906 H 66.45 V 81.109063 h 3.72 z M 68.29,77.349063 q -1,0 -1.72,-0.64 -0.68,-0.68 -0.68,-1.8 0,-1.12 0.68,-1.76 0.72,-0.68 1.72,-0.68 1,0 1.68,0.68 0.72,0.64 0.72,1.76 0,1.12 -0.72,1.8 -0.68,0.64 -1.68,0.64 z"
         style="font-style:normal;font-variant:normal;font-weight:normal;font-stretch:normal;font-family:Ubuntu;-inkscape-font-specification:Ubuntu;baseline-shift:baseline;fill:#5d59ff;fill-opacity:1"
         id="path4832" />
      <path
         d="m 90.40625,83.909063 q -0.84,0.92 -2.24,2.6 -1.36,1.68 -2.96,3.72 -1.56,2.04 -3.16,4.28 -1.56,2.24 -2.76,4.28 h 11.44 v 3.119997 h -15.88 v -2.479997 q 0.96,-1.76 2.36,-3.88 1.4,-2.12 2.92,-4.2 1.56,-2.12 3,-3.96 1.48,-1.88 2.56,-3.16 h -10.28 v -3.12 h 15 z"
         style="font-style:normal;font-variant:normal;font-weight:normal;font-stretch:normal;font-family:Ubuntu;-inkscape-font-specification:Ubuntu;baseline-shift:baseline;fill:#5d59ff;fill-opacity:1"
         id="path4834" />
    </g>
  </g>
</svg>
